<mxfile host="Electron" modified="2024-11-08T08:59:39.311Z" agent="Mozilla/5.0 (Macintosh; Intel Mac OS X 10_15_7) AppleWebKit/537.36 (KHTML, like Gecko) draw.io/24.5.3 Chrome/124.0.6367.207 Electron/30.0.6 Safari/537.36" etag="-OrWLQKKMzV_7jlP-VQM" version="24.5.3" type="device">
  <diagram name="Page-1" id="zHvealU4yq0Pl0mtWADE">
    <mxGraphModel dx="984" dy="829" grid="1" gridSize="10" guides="1" tooltips="1" connect="1" arrows="1" fold="1" page="1" pageScale="1" pageWidth="850" pageHeight="1100" math="0" shadow="0">
      <root>
        <mxCell id="0" />
        <mxCell id="1" parent="0" />
        <mxCell id="W_1ELRFCBpZqa6hiM6N_-4" value="" style="edgeStyle=orthogonalEdgeStyle;rounded=0;orthogonalLoop=1;jettySize=auto;html=1;" edge="1" parent="1" source="W_1ELRFCBpZqa6hiM6N_-1" target="W_1ELRFCBpZqa6hiM6N_-3">
          <mxGeometry relative="1" as="geometry" />
        </mxCell>
        <mxCell id="W_1ELRFCBpZqa6hiM6N_-6" value="" style="edgeStyle=orthogonalEdgeStyle;rounded=0;orthogonalLoop=1;jettySize=auto;html=1;" edge="1" parent="1" source="W_1ELRFCBpZqa6hiM6N_-1" target="W_1ELRFCBpZqa6hiM6N_-5">
          <mxGeometry relative="1" as="geometry" />
        </mxCell>
        <mxCell id="W_1ELRFCBpZqa6hiM6N_-1" value="Top Module" style="rounded=0;whiteSpace=wrap;html=1;align=center;" vertex="1" parent="1">
          <mxGeometry x="260" y="170" width="210" height="290" as="geometry" />
        </mxCell>
        <mxCell id="W_1ELRFCBpZqa6hiM6N_-2" value="FSM" style="rounded=0;whiteSpace=wrap;html=1;" vertex="1" parent="1">
          <mxGeometry x="280" y="340" width="170" height="100" as="geometry" />
        </mxCell>
        <mxCell id="W_1ELRFCBpZqa6hiM6N_-20" style="edgeStyle=orthogonalEdgeStyle;rounded=0;orthogonalLoop=1;jettySize=auto;html=1;exitX=1;exitY=0.5;exitDx=0;exitDy=0;" edge="1" parent="1" source="W_1ELRFCBpZqa6hiM6N_-3">
          <mxGeometry relative="1" as="geometry">
            <mxPoint x="710" y="315" as="targetPoint" />
          </mxGeometry>
        </mxCell>
        <mxCell id="W_1ELRFCBpZqa6hiM6N_-3" value="7 Segment Display Decoder" style="whiteSpace=wrap;html=1;rounded=0;" vertex="1" parent="1">
          <mxGeometry x="540" y="285" width="120" height="60" as="geometry" />
        </mxCell>
        <mxCell id="W_1ELRFCBpZqa6hiM6N_-5" value="Clock divider" style="whiteSpace=wrap;html=1;rounded=0;" vertex="1" parent="1">
          <mxGeometry x="220" y="655" width="290" height="60" as="geometry" />
        </mxCell>
        <mxCell id="W_1ELRFCBpZqa6hiM6N_-7" style="edgeStyle=orthogonalEdgeStyle;rounded=0;orthogonalLoop=1;jettySize=auto;html=1;exitX=0.75;exitY=0;exitDx=0;exitDy=0;entryX=0.846;entryY=1;entryDx=0;entryDy=0;entryPerimeter=0;" edge="1" parent="1" source="W_1ELRFCBpZqa6hiM6N_-5" target="W_1ELRFCBpZqa6hiM6N_-1">
          <mxGeometry relative="1" as="geometry" />
        </mxCell>
        <mxCell id="W_1ELRFCBpZqa6hiM6N_-8" value="Fast Clock" style="text;html=1;align=center;verticalAlign=middle;whiteSpace=wrap;rounded=0;rotation=-90;" vertex="1" parent="1">
          <mxGeometry x="320" y="540" width="60" height="30" as="geometry" />
        </mxCell>
        <mxCell id="W_1ELRFCBpZqa6hiM6N_-9" value="Slow Clock" style="text;html=1;align=center;verticalAlign=middle;whiteSpace=wrap;rounded=0;rotation=-90;" vertex="1" parent="1">
          <mxGeometry x="385" y="540" width="70" height="30" as="geometry" />
        </mxCell>
        <mxCell id="W_1ELRFCBpZqa6hiM6N_-10" value="Stopwatch Logic" style="rounded=0;whiteSpace=wrap;html=1;" vertex="1" parent="1">
          <mxGeometry x="280" y="190" width="170" height="100" as="geometry" />
        </mxCell>
        <mxCell id="W_1ELRFCBpZqa6hiM6N_-11" value="Reset" style="text;html=1;align=center;verticalAlign=middle;whiteSpace=wrap;rounded=0;" vertex="1" parent="1">
          <mxGeometry x="130" y="255" width="40" height="30" as="geometry" />
        </mxCell>
        <mxCell id="W_1ELRFCBpZqa6hiM6N_-12" style="edgeStyle=orthogonalEdgeStyle;rounded=0;orthogonalLoop=1;jettySize=auto;html=1;exitX=1;exitY=0.5;exitDx=0;exitDy=0;entryX=0.008;entryY=0.344;entryDx=0;entryDy=0;entryPerimeter=0;" edge="1" parent="1" source="W_1ELRFCBpZqa6hiM6N_-11" target="W_1ELRFCBpZqa6hiM6N_-1">
          <mxGeometry relative="1" as="geometry" />
        </mxCell>
        <mxCell id="W_1ELRFCBpZqa6hiM6N_-13" value="Start" style="text;html=1;align=center;verticalAlign=middle;whiteSpace=wrap;rounded=0;" vertex="1" parent="1">
          <mxGeometry x="128" y="280" width="40" height="30" as="geometry" />
        </mxCell>
        <mxCell id="W_1ELRFCBpZqa6hiM6N_-14" style="edgeStyle=orthogonalEdgeStyle;rounded=0;orthogonalLoop=1;jettySize=auto;html=1;exitX=1;exitY=0.5;exitDx=0;exitDy=0;entryX=0.008;entryY=0.344;entryDx=0;entryDy=0;entryPerimeter=0;" edge="1" parent="1" source="W_1ELRFCBpZqa6hiM6N_-13">
          <mxGeometry relative="1" as="geometry">
            <mxPoint x="260" y="295" as="targetPoint" />
          </mxGeometry>
        </mxCell>
        <mxCell id="W_1ELRFCBpZqa6hiM6N_-15" value="Stop" style="text;html=1;align=center;verticalAlign=middle;whiteSpace=wrap;rounded=0;" vertex="1" parent="1">
          <mxGeometry x="128" y="310" width="40" height="30" as="geometry" />
        </mxCell>
        <mxCell id="W_1ELRFCBpZqa6hiM6N_-16" style="edgeStyle=orthogonalEdgeStyle;rounded=0;orthogonalLoop=1;jettySize=auto;html=1;exitX=1;exitY=0.5;exitDx=0;exitDy=0;entryX=0.008;entryY=0.344;entryDx=0;entryDy=0;entryPerimeter=0;" edge="1" parent="1" source="W_1ELRFCBpZqa6hiM6N_-15">
          <mxGeometry relative="1" as="geometry">
            <mxPoint x="260" y="325" as="targetPoint" />
          </mxGeometry>
        </mxCell>
        <mxCell id="W_1ELRFCBpZqa6hiM6N_-18" value="50MHz Clock" style="text;html=1;align=center;verticalAlign=middle;whiteSpace=wrap;rounded=0;" vertex="1" parent="1">
          <mxGeometry x="60" y="340" width="108" height="30" as="geometry" />
        </mxCell>
        <mxCell id="W_1ELRFCBpZqa6hiM6N_-19" style="edgeStyle=orthogonalEdgeStyle;rounded=0;orthogonalLoop=1;jettySize=auto;html=1;exitX=1;exitY=0.5;exitDx=0;exitDy=0;entryX=0.008;entryY=0.344;entryDx=0;entryDy=0;entryPerimeter=0;" edge="1" parent="1" source="W_1ELRFCBpZqa6hiM6N_-18">
          <mxGeometry relative="1" as="geometry">
            <mxPoint x="260" y="355" as="targetPoint" />
          </mxGeometry>
        </mxCell>
        <mxCell id="W_1ELRFCBpZqa6hiM6N_-21" value="Display Output" style="text;html=1;align=center;verticalAlign=middle;whiteSpace=wrap;rounded=0;" vertex="1" parent="1">
          <mxGeometry x="710" y="300" width="120" height="30" as="geometry" />
        </mxCell>
      </root>
    </mxGraphModel>
  </diagram>
</mxfile>
